<?xml version="1.0" standalone="no"?>
<!DOCTYPE svg PUBLIC "-//W3C//DTD SVG 1.1//EN" "http://www.w3.org/Graphics/SVG/1.1/DTD/svg11.dtd" >
<!--
2013-9-30: Created.
-->
<svg>
<metadata>
Created by iconfont
</metadata>
<defs>

<font id="iconfont" horiz-adv-x="1024" >
  <font-face
    font-family="iconfont"
    font-weight="500"
    font-stretch="normal"
    units-per-em="1024"
    ascent="896"
    descent="-128"
  />
    <missing-glyph />
    
    <glyph glyph-name="x" unicode="x" horiz-adv-x="1001"
d="M281 543q-27 -1 -53 -1h-83q-18 0 -36.5 -6t-32.5 -18.5t-23 -32t-9 -45.5v-76h912v41q0 16 -0.5 30t-0.5 18q0 13 -5 29t-17 29.5t-31.5 22.5t-49.5 9h-133v-97h-438v97zM955 310v-52q0 -23 0.5 -52t0.5 -58t-10.5 -47.5t-26 -30t-33 -16t-31.5 -4.5q-14 -1 -29.5 -0.5
t-29.5 0.5h-32l-45 128h-439l-44 -128h-29h-34q-20 0 -45 1q-25 0 -41 9.5t-25.5 23t-13.5 29.5t-4 30v167h911zM163 247q-12 0 -21 -8.5t-9 -21.5t9 -21.5t21 -8.5q13 0 22 8.5t9 21.5t-9 21.5t-22 8.5zM316 123q-8 -26 -14 -48q-5 -19 -10.5 -37t-7.5 -25t-3 -15t1 -14.5
t9.5 -10.5t21.5 -4h37h67h81h80h64h36q23 0 34 12t2 38q-5 13 -9.5 30.5t-9.5 34.5q-5 19 -11 39h-368zM336 498v228q0 11 2.5 23t10 21.5t20.5 15.5t34 6h188q31 0 51.5 -14.5t20.5 -52.5v-227h-327z" />
    

    
    <glyph glyph-name="touxiang" unicode="&#58941;" d="M771.32995 172.95884h-55.197456c-55.622697 0.071872-102.515979 41.486934-109.464574 96.67341a34.964578 34.964578 0 0 0 14.729703 33.102902c94.625067 76.959605 150.225803 191.936337 151.793005 313.896602 0.18467 147.235142-115.21331 268.704284-262.265779 276.064145-147.081417-7.319932-262.524317-128.800054-262.342641-276.064145 1.335616-121.846468 56.613928-236.833183 150.940527-313.974463 10.698899-7.364852 16.279936-20.156016 14.729703-33.025041-6.951589-55.215424-53.890789-96.640468-109.542435-96.67341H250.442886c-130.158629 0.023957-235.694217-105.470704-235.719172-235.630331 0-1.539252 0.014973-3.079502 0.04492-4.618754 2.015402-34.49841 30.854915-61.24466 65.431186-60.70163H940.720538c34.518375-0.517077 63.324946 26.238157 65.354324 60.70163 2.526489 130.134671-100.921825 237.679672-231.055499 240.206162a252.411372 252.411372 0 0 1-3.689413 0.042923"  horiz-adv-x="1024" />

    
    <glyph glyph-name="tixing" unicode="&#59582;" d="M511.926 896C229.197 896 0 666.802 0 384.074c0-282.729 229.197-511.926 511.926-511.926s511.926 229.196 511.926 511.926C1023.852 666.802 794.655 896 511.926 896M463.924 640.043c0 26.511 21.496 47.993 47.993 47.993 26.496 0 47.993-21.482 47.993-47.993v-319.954c0-26.512-21.497-47.994-47.993-47.994-26.497 0-47.993 21.482-47.993 47.994V640.043z m48.002-543.928c-26.506 0-47.993 21.487-47.993 47.993s21.487 47.993 47.993 47.993 47.993-21.487 47.993-47.993-21.487-47.993-47.993-47.993"  horiz-adv-x="1024" />

    
    <glyph glyph-name="tanhao" unicode="&#59347;" d="M512.311-51.148000000000025c239.539 0 434.668 195.076 434.668 434.668 0 239.591-195.076 434.668-434.668 434.668S77.643 623.111 77.643 383.52c0-239.54 195.075-434.668 434.668-434.668m0-76.704C229.785-127.85199999999998 0.94 100.99300000000005 0.94 383.466 0.94 665.991 229.785 894.837 512.311 894.837c282.526 0 511.318-228.845 511.318-511.371 0.053-282.473-228.792-511.318-511.318-511.318M512.311 127.86000000000001c-28.131 0-51.152 23.021-51.152 51.152 0 28.132 23.021 51.153 51.152 51.153 28.395 0 51.152-23.021 51.152-51.153 0-28.184-22.758-51.152-51.152-51.152m3.055 153.406h-6.375c-26.34 0-47.833 21.494-47.833 48.045V591.396c0 26.341 21.493 47.834 47.833 47.834h6.375c26.604 0 48.044-21.493 48.044-47.834V329.30999999999995c0.053-26.603-21.44-48.044-48.044-48.044"  horiz-adv-x="1024" />

    
    <glyph glyph-name="tuijian1" unicode="&#58944;" d="M299.453 729.702c-42.642 0-79.438-24.653-97.091-60.431-2.751-5.504-10.775-5.504-13.412 0-17.652 35.892-54.448 60.431-97.091 60.431H0.5c0-59.858 48.488-108.362 108.325-108.362h173.778c59.836 0 108.325 48.504 108.325 108.362h-91.475z m685.14-149.185H154.906c-11.463 0-20.29-9.633-19.831-20.985 4.241-91.162 35.879-175.215 87.003-244.131 51.24-69.031 121.966-122.812 204.04-153.084 10.891-4.014 18.112-14.678 18.112-26.374v-97.24c64.765 0 121.737 33.942 153.833 85.085 4.699 7.453 12.725 12.04 21.551 12.729 213.325 19.149 383.436 188.402 403.725 401.458 2.062 22.819-15.82 42.542-38.746 42.542m-279.81-80.154c23.728 0 42.871-19.265 42.871-42.887 0-23.737-19.258-42.886-42.871-42.886-23.729 0-42.872 19.264-42.872 42.886s19.144 42.887 42.872 42.887"  horiz-adv-x="1024" />

    
    <glyph glyph-name="tuijian2" unicode="&#58971;" d="M633.072 729.702c0-59.858 48.488-108.363 108.325-108.363h173.777c59.837 0 108.325 48.505 108.325 108.363H932.14c-42.643 0-79.438-24.539-97.091-60.431-2.637-5.504-10.661-5.504-13.412 0-17.653 35.777-54.449 60.431-97.091 60.431h-91.474zM39.407 580.517c-22.926 0-40.808-19.724-38.745-42.543 20.29-213.056 190.4-382.309 403.725-401.458 8.827-0.688 16.85-5.275 21.55-12.729 32.096-51.143 89.067-85.085 153.833-85.085v97.24c0 11.696 7.222 22.36 18.111 26.374 82.075 30.272 152.801 84.053 204.041 153.084 51.124 68.917 82.762 152.97 87.003 244.132 0.459 11.352-8.367 20.985-19.83 20.985H39.407z m322.682-123.041c0-23.622-19.144-42.887-42.872-42.887-23.613 0-42.871 19.15-42.871 42.887 0 23.622 19.143 42.887 42.871 42.887s42.872-19.265 42.872-42.887"  horiz-adv-x="1024" />

    
    <glyph glyph-name="weibo" unicode="&#59001;" d="M371.328 342.063c-88.387-12.208-151.881-80.609-141.937-152.71 9.977-72.101 89.694-120.676 178.082-108.469 88.324 12.207 151.913 80.609 141.938 152.773-9.946 72.101-89.695 120.646-178.083 108.406m-25.786-203.709c-31.078-4.303-59.063 12.751-62.601 38.122-3.475 25.309 18.837 49.342 49.914 53.677 31.046 4.271 59.064-12.782 62.602-38.154 3.475-25.341-18.87-49.342-49.915-53.645m79.24 81.567c-13.036-3.314-25.818 2.646-28.463 13.292-2.71 10.646 5.674 21.93 18.71 25.213 13.036 3.283 25.754-2.646 28.463-13.293 2.74-10.646-5.738-21.96-18.71-25.212M830.13 461.625a36.211 36.211 0 0 1 14.121-2.868c14.12 0 27.603 8.319 33.468 22.184 6.758 15.938 10.168 32.926 10.168 50.393 0 71.367-58.043 129.442-129.41 129.442-17.435 0-34.393-3.411-50.393-10.168-18.486-7.842-27.125-29.165-19.315-47.621 7.842-18.487 29.165-27.157 47.652-19.348a56.672 56.672 0 0 0 22.058 4.431c31.268 0 56.735-25.436 56.735-56.736 0-7.714-1.466-15.141-4.398-22.089-7.841-18.455 0.829-39.811 19.315-47.621l-0.001 0.001z m-84.627-53.581c3.569 10.232 7.107 20.335 7.107 20.335C816.232 550.49 652.205 590.3009999999999 558.145 538.4100000000001c-94.029-51.955-48.64 35.954-48.64 35.954 15.556 160.552-153.22 89.504-153.22 89.504C-35.676 444.062 4.135 226.231 4.135 226.231c0-119.88 187.932-253.752 424.952-253.752 313.996 0 493.035 183.564 461.925 319.987-12.591 55.079-77.997 102.287-145.506 115.578h-0.003zM382.389 34.825000000000045c-205.591 0-275.141 106.939-275.141 184.234 0 122.461 162.241 212.921 314.984 212.921 152.711 0 261.563-64.896 286.489-150.001 36.91-125.935-124.056-247.155-326.332-247.154z m376.086 761.1c-22.407 0-44.752-2.837-66.299-8.416-19.411-5.004-31.109-24.829-26.104-44.273 5.068-19.412 24.861-31.11 44.273-26.105 15.619 4.08 31.811 6.088 48.162 6.088 105.76 0 191.853-86.093 191.853-191.852 0-22.694-3.953-44.88-11.604-65.885-6.885-18.837 2.806-39.747 21.643-46.601 4.112-1.498 8.319-2.231 12.464-2.231 14.822 0 28.782 9.18 34.138 23.905 10.582 29.038 16 59.605 16 90.843-0.032 145.824-118.668 264.527-264.527 264.527h0.001z"  horiz-adv-x="1024" />

    
    <glyph glyph-name="xiazhu" unicode="&#58914;" d="M512.795 894.202C231.129 894.088 2.887 665.6610000000001 3 383.996c0.113-281.665 228.54-509.907 510.205-509.794 281.585 0.113 509.795 228.415 509.795 510 0 281.665-228.335 510-510 510h-0.205z m61.643-61.644c196.64-27.249 352.816-179.016 385.685-374.795h-44.178c-31.777 171.858-168.777 304.816-341.507 331.439V833.175v-0.617z m-123.288 0v-43.356c-172.65-26.703-309.547-159.644-341.3-331.439H65.671C98.272 653.718 254.402 805.771 451.15 833.175v-0.617z m0-897.945C245.405-36.76599999999996 85.311 127.81299999999999 62.383 334.27h43.767c22.723-182.197 163.548-327.216 345-355.273v-44.59 0.206z m61.645 319.522l-136.233-80.139 34.11 154.521-118.358 104.795 157.809 14.795 63.082 145.069 62.672-145.069 157.397-15.205-118.767-104.179 34.109-154.521-135.821 79.933z m61.643-319.522v44.384c181.452 28.058 322.277 173.076 345 355.273h44.384c-22.901-206.734-183.331-371.48-389.384-399.863v0.206z"  horiz-adv-x="1024" />

    
    <glyph glyph-name="yaoqingsai" unicode="&#58949;" d="M423.395-121.05399999999997c-25.684 0-49.74 10.13-67.683 28.542l-76.944 79.332c-13.891 14.325-13.565 37.115 0.688 51.08 16.134 15.734 25.141 36.788 25.395 59.325 0.252 22.501-8.285 43.735-24.02 59.833-31.545 32.305-87.11 32.956-119.269 1.483-6.873-6.729-17.328-10.237-25.756-10.31-9.623 0.145-18.811 4.052-25.504 10.997l-76.835 79.187c-17.545 17.871-27.168 41.746-26.914 67.032 0.289 25.322 10.418 48.98 28.542 66.706l501.311 491.22c36.392 35.415 98.54 34.62 133.847-1.483l77.015-79.367c13.893-14.326 13.567-37.152-0.722-51.08-16.099-15.772-25.142-36.862-25.396-59.398-0.253-22.538 8.285-43.772 23.984-59.906 31.508-32.196 87.109-32.919 119.377-1.411 6.873 6.729 16.604 9.478 25.756 10.31 9.623-0.145 18.812-4.088 25.468-10.997l76.799-79.26c17.509-17.761 27.132-41.564 26.914-66.815-0.217-25.322-10.31-49.052-28.396-66.778L489.56-94.10299999999995c-17.871-17.4-41.349-26.951-66.165-26.951m-70.468 135.367l54.66-56.397c8.212-8.356 22.863-8.646 31.436-0.253l501.383 491.146a22.371 22.371 0 0 1 6.729 15.773c0.036 5.896-2.206 11.431-6.33 15.627l-54.66 56.433c-24.093-14.506-51.803-22.248-80.598-22.248-42.578 0-82.37 16.749-112.143 47.209-29.265 29.916-45.073 69.419-44.604 111.274 0.362 29.59 8.791 57.807 24.31 82.152L618.414 811.39c-8.139 8.284-22.898 8.537-31.472 0.217L85.667 320.42499999999995c-4.305-4.196-6.692-9.804-6.765-15.736-0.036-5.933 2.207-11.504 6.331-15.772l54.624-56.324c24.093 14.507 51.766 22.248 80.525 22.248 42.578 0 82.443-16.785 112.178-47.28 29.229-29.881 45.11-69.384 44.604-111.202-0.326-29.52-8.754-57.736-24.237-82.046m-15.374 287.12a36.075 36.075 0 0 0-25.576 10.6c-14.145 14.145-14.145 37.007 0 51.151l201.964 202c14.145 14.144 37.043 14.144 51.188 0 14.107-14.108 14.107-37.007 0-51.151l-201.965-202a36.218 36.218 0 0 0-25.611-10.6m108.09-108.054a36.076 36.076 0 0 0-25.576 10.599c-14.144 14.145-14.144 37.007 0 51.151l201.964 202c14.145 14.145 37.008 14.145 51.151 0 14.145-14.108 14.145-37.006 0-51.151l-201.963-202c-7.091-7.054-16.351-10.599-25.576-10.599"  horiz-adv-x="1024" />

    
    <glyph glyph-name="yanshenyuedu" unicode="&#58953;" d="M319.707-95.28599999999994l-0.863-0.001c-87.929 0-167.499 35.775-224.953 93.563C36.089 55.74699999999996 0.329 135.298 0.329 223.19899999999996l0.001 0.939-0.001 0.825c0 87.93 35.763 167.504 93.534 224.976L463.077 845.565l46.725-43.563-370-396.411C90.778 356.50300000000004 64.206 292.34000000000003 64.206 224.08900000000006s26.573-132.413 74.83-180.64c48.258-48.258 112.421-74.862 180.672-74.862s132.414 26.604 180.64 74.862l401.298 427.678c36.889 36.921 56.816 85.019 56.816 136.215 0 51.197-19.93 99.296-56.148 135.479-36.185 36.218-84.252 56.147-135.478 56.147s-99.295-19.929-135.479-56.147L230.092 315.24c-50.749-50.782-50.908-131.999-1.117-181.822 22.932-23.006 54.649-37.24 89.691-37.24l0.493 0.002h0.385c35.364 0 67.365 14.383 90.479 37.618l385.046 401.494 46.085-44.234L455.666 89.09000000000003c-34.734-35.047-82.886-56.748-136.105-56.753h-0.429l-0.731-0.001c-52.598 0-100.2 21.391-134.581 55.946-74.742 74.71-74.55 196.489 0.408 271.416l401.201 427.55c48.993 48.992 113.093 75.596 181.407 75.596s132.414-26.604 180.64-74.862c48.289-48.227 74.862-112.389 74.862-180.64s-26.571-132.414-74.862-180.672L546.242-0.9769999999999754c-57.623-58.245-137.56-94.313-225.923-94.313l-0.646 0.001 0.034 0.003z"  horiz-adv-x="1024" />

    
    <glyph glyph-name="dianzan" unicode="&#58946;" d="M1013.961 554.846c0-301.549-502.627-628.012-502.627-628.012S8.706 253.28700000000003 8.706 554.846c0 301.559 313.277 391.496 502.628 138.401 187.612 253.104 502.627 163.158 502.627-138.401"  horiz-adv-x="1024" />

    
    <glyph glyph-name="zhihu" unicode="&#59089;" d="M330.07287 327.028h220.376c0 51.816-24.428 82.167-24.428 82.167H334.76287c4.543 93.866 8.614 214.337 10.071 259.083H526.76187s-0.987 76.985-21.219 76.985H185.75887S205.00487 845.935 230.66687 890.379c0 0-95.491 5.152-128.062-122.168C70.03387 640.89 21.17787 563.904 15.99687 549.8399999999999c-5.181-14.063 28.129-6.662 42.193 0 14.064 6.663 77.726 29.61 96.231 118.438h98.878c1.331-56.293 5.25-228.816 4.015-259.083H53.74887c-28.869-20.728-38.493-82.167-38.493-82.167h232.669c-9.706-64.253-26.747-147.069-50.57-190.982-37.752-69.582-57.739-133.242-193.942-242.797 0 0-22.207-16.285 46.634-10.364 68.843 5.923 133.983 23.688 179.138 113.997 23.475 46.951 47.748 106.508 66.687 166.914l-0.063-0.212 191.72-220.739s25.168 59.219 6.662 124.36L352.06487 226.356l-48.113-35.588-0.051-0.173c13.362 46.853 22.971 93.172 25.957 133.472 0.071 0.971 0.144 1.96 0.215 2.961M596.34387 761.549v-763.927h80.315l32.902-91.959 139.202 91.959h175.438V761.549H596.34387zM941.54187 79.78899999999999h-91.188l-113.734-75.134-26.884 75.134h-28.389V676.298h260.194l0.001-596.509z"  horiz-adv-x="1024" />

    
    <glyph glyph-name="cuo" unicode="&#59162;" d="M511.931546-128c-282.558536 0-511.648734 229.097194-511.648735 511.657728 0 282.586517 229.090199 511.658728 511.648735 511.658728 282.576524 0 511.667722-229.072211 511.667721-511.658728 0-282.560534-229.091198-511.657728-511.667721-511.657728m211.055227 662.40618c16.669881 16.651893 16.669881 43.640892 0 60.291786-16.648895 16.668882-43.639893 16.668882-60.287788 0l-150.744455-150.749451-150.746453 150.749451c-16.647896 16.668882-43.636895 16.668882-60.288788 0-16.669881-16.650894-16.669881-43.639893 0-60.291786l150.744455-150.747452-150.745454-150.748452c-16.669881-16.649895-16.669881-43.640892 0-60.289788 16.651893-16.668882 43.640892-16.668882 60.288788 0l150.748452 150.749452 150.743455-150.749452c16.649895-16.668882 43.639893-16.668882 60.287788 0 16.669881 16.649895 16.669881 43.639893 0 60.289788L572.242319 383.657728l150.744454 150.748452z"  horiz-adv-x="1024" />

    
    <glyph glyph-name="qq" unicode="&#59176;" d="M510.2646875 860.9784375c-1.76625 0-3.5325-0.016875-5.3146875-0.0496875-20.9775-0.495-40.4859375-2.656875-58.6246875-6.271875-78.19875-15.3159375-131.030625-57.5184375-164.964375-110.565-34.0490625-53.3428125-43.11-100.0678125-54.6140625-147.7828125l1.089375-1.749375c-3.350625-18.5353125-5.446875-35.3371875-6.7340625-49.4484375-2.2940625-1.254375-12.46125-7.19625-21.4565625-18.46875l0.0328125 0.1321875-1.055625-1.43625-1.501875-2.0296875-1.9640625-2.9878125-1.3040625-2.1121875-1.84875-3.45-1.1053125-2.244375-1.584375-3.8953125-0.924375-2.4253125-1.2375-4.3415625-0.676875-2.574375c-0.346875-1.5684375-0.5784375-3.2184375-0.8090625-4.8853125l-0.3965625-2.6409375c-0.1978125-1.831875-0.2465625-3.763125-0.2803125-5.694375l-0.0984375-2.4421875c0.0159375-2.8059375 0.1978125-5.71125 0.560625-8.7478125 0 0-24.0965625-12.114375-10.0509375-63.8896875 0 0 2.31-3.350625 6.4528125-8.5828125-22.05-30.665625-93.1359375-139.2825-68.9071875-235.3078125 0 0 2.6409375-6.1725 9.2428125-6.1725 2.2115625 0 4.8853125 0.6928125 8.038125 2.5415625 8.334375 4.9190625 18.79875 20.4665625 38.4225 43.26 0 0 5.5790625-99.9365625 101.619375-172.325625-7.9884375-0.924375-15.860625-2.2284375-23.2875-4.11 0 0-68.0325-22.00125-68.0325-60.5559375 0-38.5715625 73.891875-56.1825 73.891875-56.1825s38.01-8.664375 85.790625-8.664375c47.0390625 0 103.5346875 8.4009375 142.60125 41.7065625 6.585 5.62875 11.1571875 10.89375 14.293125 15.82875 5.0503125-0.2971875 9.9525-0.691875 15.1678125-0.8915625 0 0 0.7753125-0.016875 2.26125-0.016875 3.465 0 10.794375 0.099375 20.960625 0.7096875 3.103125-4.8853125 7.6565625-10.0509375 14.176875-15.63 39.065625-33.3225 95.563125-41.690625 142.6003125-41.690625h1.666875c3.6309375-0.0984375 7.3275-0.165 11.05875-0.165 23.3371875 0 48.4903125 2.2603125 72.7190625 8.746875l0.3459375 0.065625 0.628125 0.1659375 1.5178125 0.3965625c9.3084375 2.4909375 48.721875 14.0625 64.83 36.045l1.336875 2.1965625c3.3675 5.248125 5.529375 11.0071875 5.529375 17.3784375 0 38.5546875-68.0165625 60.5559375-68.0165625 60.5559375-10.2159375 2.59125-21.19125 4.1428125-32.266875 5.000625 47.1375 35.6840625 86.66625 88.5646875 101.4225 167.060625 0 0 25.83-34.395 44.7271875-44.2490625 2.360625-1.2534375 4.8196875-1.7990625 7.0978125-1.7990625 2.3259375 0 4.438125 0.5615625 6.0890625 1.535625 3.3834375 2.0296875 5.3475 8.5659375 6.4865625 19.3603125 4.11 38.4553125-9.770625 127.15125-55.3565625 192.526875 0 0-16.059375 22.4128125-28.5365625 36.0628125 0.8746875 2.9371875 1.4353125 5.7928125 1.4353125 8.51625 0 25.335-19.095 33.0421875-19.095 38.53875 0 5.5115625 12.04875 26.4403125 10.066875 55.07625-0.2315625 3.234375-0.890625 6.1059375-1.7146875 8.829375l-0.6946875 2.09625c-0.7753125 2.1290625-1.6828125 4.093125-2.739375 5.9090625l-0.676875 1.2534375c-1.1390625 1.7990625-2.3765625 3.4996875-3.714375 4.9846875l0.016875-0.1809375c-8.8790625 10.08375-20.6465625 13.4671875-20.6465625 13.4671875s-3.0534375 72.3075-20.630625 126.31125l0.7425-0.7265625c-2.9540625 9.0609375-6.3065625 18.1884375-10.100625 27.2325-16.9003125 39.8915625-43.209375 77.803125-81.204375 106.884375-22.7259375 17.47875-49.6284375 31.78875-81.25125 41.4271875-26.686875 8.1375-57.0384375 15.58125-91.5009375 15.58125"  horiz-adv-x="1024" />

    
    <glyph glyph-name="duigou" unicode="&#58918;" d="M970.528 741.863c-14.914 0-28.385-6.146-38.036-16.033l-0.046 0.046-571.15-571.373L93.608 423.081l-0.08-0.078c-9.736 10.923-23.909 17.809-39.698 17.809-29.354 0-53.151-23.781-53.151-53.114 0-15.701 6.822-29.805 17.661-39.528l-0.06-0.06 305.244-306.252c0.069-0.07 0.131-0.144 0.202-0.213 9.635-9.744 23.016-15.782 37.807-15.782 14.807 0 28.201 6.052 37.837 15.811l607.593 608.425c10.286 9.686 16.717 23.413 16.717 38.651 0.001 29.333-23.798 53.113-53.152 53.113"  horiz-adv-x="1024" />

    
    <glyph glyph-name="fenxiang" unicode="&#58962;" d="M943.292 514.592l-368.658-375V347.92499999999995c-97.346 0-329.695 20.834-329.695-163.25 0-133.75 81.893-269.25 207.777-295.083C250.5-82.95000000000005 84.752 56.259000000000015 84.752 306.259c0 390.375 422.831 375 489.923 375V889.592l368.617-375z"  horiz-adv-x="1024" />

    
    <glyph glyph-name="dui" unicode="&#58882;" d="M511.903024 895.748062c-282.699429 0-511.874031-229.174602-511.874031-511.874031 0-282.701429 229.174602-511.874031 511.874031-511.874031 282.701429 0 511.874031 229.172602 511.874031 511.874031 0 282.699429-229.174602 511.874031-511.874031 511.874031M805.501771 516.6483559999999L474.445242 185.590827l-0.008998-0.009997c-15.262244-15.267243-38.534517-17.649657-56.301144-7.156239a46.533548 46.533548 0 0 0-9.217732 7.156239c-0.002 0.003999-0.005999 0.005999-0.005999 0.005998L218.306276 376.191922c-18.092548 18.092548-18.092548 47.427328 0 65.523875 18.091548 18.091548 47.428328 18.091548 65.519876 0l157.853153-157.853154 298.30359 298.30359c18.094547 18.091548 47.429328 18.091548 65.522875 0 18.086549-18.091548 18.086549-47.426329-0.003999-65.517877"  horiz-adv-x="1024" />

    
    <glyph glyph-name="gongkaisai" unicode="&#58950;" d="M582.272 647.612c-17.49 4.77-35.51-5.3-40.28-23.32-4.77-17.49 5.301-35.51 23.32-40.28 46.64-12.72 87.98-40.28 118.72-77.38 6.891-7.95 15.9-12.19 25.44-12.19 7.42 0 14.84 2.65 21.2 7.42 14.31 11.66 15.899 32.33 4.239 46.11-39.749 49.29-92.219 83.21-152.639 99.64m-147.34 3.71c-18.02-4.24-29.15-21.73-24.91-39.75 3.71-15.37 16.96-25.97 32.33-25.97 2.12 0 4.77 0.53 6.89 1.06 16.96 3.71 34.45 5.83 51.41 5.83 18.021 0 32.86 14.84 32.86 32.86s-14.84 32.86-32.86 32.86c-21.73 0.53-43.99-2.12-65.72-6.89m-274.54-367.82c2.12 0 4.24 0 6.36 0.53 18.02 3.71 29.68 21.2 26.5 38.689-4.24 20.141-5.83 40.811-5.83 61.48 0 177.02 144.16 321.71 321.71 321.71 142.041 0 269.241-95.4 308.991-231.61 4.77-17.49 23.85-27.56 40.81-22.26 17.49 4.77 27.56 23.85 22.26 40.81-11.66 39.75-29.149 77.38-53 111.83-23.319 33.92-51.41 63.6-84.27 87.98-68.37 51.41-149.46 78.97-235.321 78.97-51.94 0-102.82-10.07-151.05-30.21-46.11-19.61-87.98-47.7-123.49-83.21-35.51-35.51-63.07-77.38-82.68-123.49-20.14-47.7-30.21-98.58-30.21-151.05 0-24.38 2.12-49.29 6.89-73.67 3.18-15.369 16.96-26.499 32.33-26.499m859.661 217.3c-6.891 28.09-30.211 48.23-71.021 59.89-17.489 5.3-35.51-4.77-40.81-22.26-5.3-17.49 4.77-35.51 22.26-40.81 16.96-4.77 23.32-9.54 24.91-12.19-1.06-3.18-5.83-12.72-25.44-28.62-20.67-16.43-51.409-34.98-89.039-53.53-81.62-39.219-191.33-75.79-308.99-103.35-118.19-27.029-232.67-42.93-322.77-43.46-41.871-0.53-77.911 2.65-103.351 8.48-24.91 5.83-32.86 12.72-34.98 14.84 1.06 2.649 5.3 11.66 22.79 26.5 13.78 11.66 15.37 32.33 4.24 46.11-11.13 13.779-32.33 15.37-46.11 4.239-37.63-30.21-52.47-61.479-45.58-91.159 6.89-28.091 30.21-48.23 70.491-59.891 25.439-7.42 57.769-12.189 96.989-13.25 32.86-57.77 80.56-106.529 138.33-140.979 59.89-35.511 128.79-54.59 198.75-54.59 100.17 0 195.571 38.159 267.651 107.59 70.489 67.31 112.89 157.409 118.719 254.399 37.631 19.61 66.25 39.22 87.451 57.77 29.149 28.091 41.339 56.711 35.51 84.271z m-510.921-438.84c-102.29 0-198.22 48.76-258.11 129.851 87.45 4.239 189.74 19.609 295.74 43.989 103.35 23.851 199.81 54.591 278.78 87.98-28.09-149.46-159.529-261.82-316.41-261.82"  horiz-adv-x="1024" />

    
    <glyph glyph-name="guanbi" unicode="&#58931;" d="M905.496332-107.77745200000004c26.959893-26.962891 70.830665-26.962891 97.792557 0 26.960892 26.962891 26.960892 70.834662 0 97.798551L609.788745 383.543223l4.536943 4.535945 388.962202 388.988178c13.059323 13.060322 20.25289 30.426793 20.252891 48.898277s-7.192569 35.836956-20.252891 48.898276c-26.958894 26.960892-70.829666 26.962891-97.792557 0L511.999186 481.341775 118.499042 874.863899C105.019095 888.344845 87.311928 895.084818 69.604762 895.084818c-17.708166 0-35.415333-6.739973-48.896279-20.220919C7.648161 861.802578 0.454594 844.437106 0.454594 825.965623s7.193568-35.837955 20.253889-48.898277l393.498146-393.524123-393.498146-393.522124c-26.960892-26.962891-26.960892-70.834662 0-97.798551 26.961891-26.962891 70.830665-26.96389 97.791558 0L511.998187 285.745671l393.498145-393.523123z"  horiz-adv-x="1024" />

    
    <glyph glyph-name="fanhui" unicode="&#59179;" d="M0.099 621.873c0-16.564 5.944-33.129 17.946-45.809l450.59-475.341c24.004-25.36 62.867-25.36 86.871 0l450.59 475.341c24.004 25.247 24.004 66.257 0 91.618-23.891 25.36-62.867 25.36-86.872 0L512.185 238.264 105.031 667.682c-24.004 25.361-62.868 25.361-86.871 0C6.157 655.001 0.099 638.437 0.099 621.873"  horiz-adv-x="1024" />

    
    <glyph glyph-name="jiahao" unicode="&#58881;" d="M1021.333 383.77700000000004c0 36.724-29.766 66.502-66.534 66.502H577.866V827.273c0 36.723-29.795 66.504-66.534 66.504-36.738 0-66.533-29.78-66.533-66.504v-376.992H67.867c-36.765 0-66.534-29.78-66.534-66.504 0-36.737 29.766-66.503 66.534-66.503h376.934v-376.992c0-36.738 29.796-66.504 66.533-66.504 36.739 0 66.535 29.766 66.535 66.504V317.273h376.932l-0.002 0.003c36.768 0 66.533 29.764 66.534 66.501"  horiz-adv-x="1024" />

    
    <glyph glyph-name="jiahao1" unicode="&#58895;" d="M988.105 412.847H540.262V860.55c0 15.957-13.098 28.895-29.068 28.895-15.969 0-29.067-12.938-29.067-28.895v-447.703H34.562c-15.957 0-28.895-13.098-28.895-29.068s12.938-29.067 28.895-29.067h447.565v-447.706c0-15.957 13.098-28.896 29.067-28.896 15.971 0 29.068 12.938 29.068 28.896V354.711h447.844c15.957 0 28.896 13.098 28.896 29.067 0 15.971-12.939 29.069-28.897 29.069"  horiz-adv-x="1024" />

    
    <glyph glyph-name="jianhao" unicode="&#58883;" d="M1022.283 382.778c0 36.723-29.766 66.501-66.534 66.501H578.816l-509.999 0.001c-36.765 0-66.534-29.779-66.534-66.503 0-36.738 29.766-66.504 66.534-66.504h886.934l-0.002 0.003c36.769 0 66.533 29.764 66.534 66.502"  horiz-adv-x="1024" />

    
    <glyph glyph-name="jinghao" unicode="&#58948;" d="M115.152 539.547c-1.492 9.942-2.486 18.724-3.314 25.849-0.829 7.125-0.995 14.251-0.995 21.541 0 22.867 3.314 38.112 9.611 45.237 6.463 7.125 15.41 10.77 27.01 10.77h198.343L410.596 890.999c40.266-2.818 67.109-8.285 80.863-16.239 13.753-7.954 20.546-17.564 20.546-28.998v-15.079L460.141 643.11h239.438L766.522 891.164c40.266-2.817 67.108-8.285 80.862-16.238 13.753-7.954 20.547-17.565 20.547-28.998 0-5.8-0.829-10.771-2.154-15.079l-49.71-187.739h170.34c2.817-8.617 4.309-16.902 4.309-24.855v-22.701c0-21.541-3.314-36.289-9.776-44.242-6.463-7.954-15.41-11.765-27.01-11.765H788.063L710.35 252.71900000000005h200.498c1.326-10.108 2.485-19.056 3.314-27.01a217.169 217.169 0 0 0 1.159-22.701c0-37.448-12.262-56.007-36.619-56.007H682.181l-73.24-269.595c-40.265 2.816-66.942 8.285-79.867 16.072-12.925 7.954-19.387 17.564-19.387 29.164 0 5.634 0.662 10.107 2.154 12.925l56.006 211.269H326.421l-71.086-269.597c-40.265 2.817-67.606 8.286-82.022 16.074-14.416 7.953-21.541 17.564-21.541 29.163 0 2.816 0.331 4.971 0.994 6.462 0.663 1.326 0.994 3.646 0.994 6.463l58.327 211.269H39.592c-2.817 10.107-4.308 19.056-4.308 27.009V196.38c0 21.541 3.314 36.289 9.776 44.242 6.463 7.954 15.41 11.765 27.01 11.765h168.186l75.394 286.829H115.152v0.331z m239.272-286.828H595.85l77.714 286.828H432.138l-77.714-286.828z"  horiz-adv-x="1024" />

    
    <glyph glyph-name="jifen" unicode="&#58951;" d="M1009.811 490.323c0.509 0.626 0.981 1.279 1.417 1.957l0.135 0.135 1.35 2.024 0.135 0.068c0.429 0.73 0.79 1.498 1.08 2.293l0.135 0.068a29.468 29.468 0 0 1 1.821 4.722v0.135c0.445 1.55 0.782 3.128 1.012 4.723v0.405l0.203 2.024v0.337l0.135 1.889v0.945c0 0.674 0 1.214-0.135 1.889v0.472l-0.338 2.362v0.202c-0.067 0.809-0.337 1.619-0.404 2.294v0.202a35.322 35.322 0 0 1-1.755 4.858l-1.079 2.361v0.202a18.05 18.05 0 0 1-1.484 2.497L810.649 848.841a36.498 36.498 0 0 1-30.9 16.732H643.804a39.61 39.61 0 0 1-12.616 0h-388.54a36.499 36.499 0 0 1-30.967-16.732L10.629 529.319c-0.607-0.81-1.012-1.687-1.485-2.496v-0.135c-0.472-0.742-0.809-1.552-1.147-2.361a35.326 35.326 0 0 1-1.686-4.858v-0.202c-0.213-0.752-0.371-1.52-0.472-2.294v-0.203l-0.338-2.361v-0.472l-0.067-1.889v-0.945l0.067-2.024v-0.337c0-0.675 0.135-1.349 0.27-2.024v-0.337c0.207-1.6 0.545-3.18 1.012-4.723v-0.135c0.405-1.552 1.147-3.171 1.822-4.723v-0.135c0.337-0.809 0.742-1.484 1.214-2.226 0 0 0-0.135 0.135-0.135l1.35-2.024 0.067-0.135 1.484-1.889 0.135-0.135 469.838-575.558c0.135-0.271 0.337-0.338 0.472-0.474l0.81-1.011 0.675-0.675 1.686-1.687c0.224-0.25 0.473-0.476 0.742-0.675l0.945-0.81 0.877-0.675 0.944-0.676 1.08-0.809c0.27-0.066 0.472-0.337 0.81-0.404 0.674-0.338 1.214-0.81 1.956-1.147l0.675-0.337c0.405-0.271 1.012-0.473 1.417-0.675a5.5 5.5 0 0 1 0.809-0.337c0.473-0.253 0.97-0.457 1.484-0.607 0.203-0.067 0.405-0.202 0.675-0.202 0.675-0.203 1.214-0.473 1.889-0.54l0.338-0.135 2.294-0.54c0.28-0.104 0.578-0.149 0.877-0.135 0.472-0.135 0.944-0.202 1.484-0.202l1.012-0.136 1.214-0.135 1.147-0.067h2.294l4.048 0.202h0.135l1.89 0.203h0.202l1.754 0.337 0.405 0.135 1.484 0.338 0.539 0.135a4.063 4.063 0 0 1 1.282 0.404l0.675 0.271c0.337 0.067 0.81 0.202 1.147 0.404 0.202 0.135 0.404 0.271 0.674 0.271h0.067l1.282 0.539c0.067 0.135 0.202 0.135 0.404 0.202a13.612 13.612 0 0 1 1.822 0.945l1.687 1.012s0.135 0 0.135 0.136l1.552 1.011 0.135 0.067c0.473 0.338 1.012 0.675 1.484 1.147l0.135 0.135a30.715 30.715 0 0 1 5.667 5.667l469.838 575.491c-0.135-0.27-0.135-0.203 0-0.203h-0.066zM613.242 796.622l104.37-250.841h-412.49L409.493 796.7570000000001h203.75v-0.135z m102.211-319.724L511.098 23.45399999999995l-204.29 453.444h408.645z m-487.378 0l138.982-308.323-251.786 308.323h112.804z m566.046 0h113.073L654.869 167.89999999999998l139.318 308.998h-0.066z m123.125 68.883H795.267L690.963 796.7570000000001h68.142l158.142-250.908v-0.068zM263.225 796.7570000000001h68.411l-104.37-250.976H105.15L263.292 796.7570000000001h-0.067z"  horiz-adv-x="1024" />

    
    <glyph glyph-name="pinglun" unicode="&#58947;" d="M3 436.676c0-244.092 228.173-442.197 510-442.197 42.451 0 83.133 4.717 122.636 12.971 60.139-37.145 183.954-117.919 183.954-117.919s0.589 128.532 0 193.979C943.404 164.28300000000002 1023 292.226 1023 436.676c0 244.092-228.174 442.196-510 442.196-281.827 0-510-198.104-510-442.196m686.878 0c0 37.145 30.659 67.803 67.804 67.803s67.804-30.658 67.804-67.803-30.659-67.803-67.804-67.803-67.804 30.658-67.804 67.803m-255.294 0c0 37.145 30.658 67.803 67.803 67.803 37.734 0 67.803-30.069 67.803-67.803 0-37.145-30.658-67.803-67.803-67.803-37.145 0.589-67.803 30.658-67.803 67.803m-254.706 0c0 37.145 30.659 67.803 67.804 67.803 37.734 0 67.803-30.069 67.803-67.803 0-37.145-30.659-67.803-67.803-67.803-37.735 0.589-67.804 30.658-67.804 67.803"  horiz-adv-x="1024" />

    
    <glyph glyph-name="liulan" unicode="&#58945;" d="M372.112 381.38300000000004c0-16.969 5.656-33.938 11.313-50.906 5.656-16.97 16.969-33.938 28.281-45.251 11.313-11.313 28.282-22.625 45.251-28.282 16.969-5.656 33.938-11.313 50.907-11.313s33.938 5.656 50.907 11.313c16.97 5.657 33.938 16.97 45.251 28.282s22.625 28.281 28.281 45.251c5.657 16.968 11.313 33.938 11.313 50.906s-5.656 33.938-11.313 50.907c-5.656 16.969-16.969 33.938-28.281 45.251-11.313 11.313-28.281 22.625-45.251 28.282-16.969 5.656-33.938 11.312-50.907 11.312s-33.938-5.656-50.907-11.312c-11.313-5.657-28.282-11.313-39.595-28.282-16.968-11.313-22.625-28.282-33.937-45.251-5.657-16.969-11.313-33.938-11.313-50.907M513.521 149.47400000000005c-130.096 0-231.91 107.47-231.91 231.909s101.814 231.911 231.91 231.911S745.43 505.823 745.43 381.38300000000004 643.616 149.47400000000005 513.521 149.47400000000005m497.756 265.847s0 11.313-124.439 130.096c-175.346 152.72-333.724 175.346-446.851 158.377-113.126-16.969-197.971-79.189-209.284-84.845C174.14 590.6669999999999 89.295 505.822 66.67 477.541c-28.282-28.282-45.251-39.595-56.564-56.564-22.625-45.25 5.656-90.5 5.656-90.5l79.189-79.189s175.347-192.315 401.6-192.315c226.253 0 333.723 96.158 384.63 135.752 45.251 33.938 101.814 101.814 130.096 141.409 22.626 39.593 0 79.187 0 79.187"  horiz-adv-x="1024" />

    
    <glyph glyph-name="qipao" unicode="&#58937;" d="M512.159 640.202c0-282.743-229.257-512-512-512h1024c-282.743 0-512 229.257-512 512"  horiz-adv-x="1024" />

    
    <glyph glyph-name="mingpian" unicode="&#58943;" d="M932.137 768.703H92.222c-50.752 0-92.043-41.256-92.043-91.967v-584.381c0-50.711 41.291-91.967 92.043-91.967h33.147a206.985 206.985 0 0 1 19.79-0.046c1.666-0.051 3.332-0.082 4.975-0.082 2.755 0 4.893 0.069 6.164 0.127l367.562-0.583c1.121-0.045 3.02-0.102 5.48-0.102 2.948 0 7.168 0.088 12.048 0.431l4.822-0.005c0.373-0.006 0.976-0.013 1.779-0.013 2.186 0 5.549 0.051 9.667 0.271h374.48c50.753 0 92.043 41.256 92.043 91.967V676.735c0.001 50.712-41.289 91.968-92.042 91.968m-376.09-704.274h-14.555l-1.6-0.161c-0.326-0.032-0.646-0.062-0.965-0.09l-392.083 0.354-1.24 0.007-1.308-0.104-0.053-0.005h-17.052c-5.868 0.371-10.313 1.086-13.442 1.812 2.339 32.93 17.383 78.868 53.875 118.64 29.81 32.488 84.296 71.216 174.581 71.216 90.474 0 145.489-38.802 175.708-71.353 36.83-39.672 52.161-85.163 54.696-117.883-4.1-1.041-9.879-1.986-16.562-2.433m404.033 27.925c0-15.398-12.536-27.925-27.943-27.925H636.938c-0.985 25.395-7.093 52.539-17.846 78.993-12.538 30.847-31.274 60.194-54.182 84.868-38.897 41.899-109.109 91.845-222.704 91.845-113.589 0-183.328-50.02-221.83-91.98-24.742-26.966-43.929-58.7-56.097-91.629V676.735c0 15.398 12.535 27.924 27.943 27.924h839.915c15.407 0 27.943-12.527 27.943-27.924v-584.381zM345.267 668.75c-84.045 0-152.422-68.374-152.422-152.415 0-84.053 68.376-152.435 152.422-152.435 84.05 0 152.429 68.382 152.429 152.435-0.001 84.041-68.38 152.415-152.429 152.415m0-240.547c-48.589 0-88.121 39.537-88.121 88.133 0 48.586 39.531 88.114 88.121 88.114 48.593 0 88.127-39.528 88.127-88.114-0.001-48.596-39.534-88.133-88.127-88.133M579.038 669.797h319.5v-64.302h-319.5zM579.038 541.193h319.5v-64.302h-319.5zM579.038 412.589h193.91v-64.302h-193.91z"  horiz-adv-x="1024" />

    
    <glyph glyph-name="shangjin" unicode="&#58952;" d="M895.51 894.202H754.517L596.005 608.85c-42.306-77.19-68.163-128.6-77.649-154.075h-2.754C487.831 516.742 409.111 663.1659999999999 279.669 894.202H130.49L407.734 429.07H180.447v-102.818h266.456V184.57000000000005H180.447v-104.043h266.456v-206.325h132.195V80.45100000000002h257.047V184.57000000000005H579.098V326.25199999999995h257.047V428.994H615.513L895.51 894.202z"  horiz-adv-x="1024" />

    
    <glyph glyph-name="suo" unicode="&#58954;" d="M716.58 537.015H309.317c-126.902-0.174-229.738-103.009-229.911-229.911v-203.99c0.173-126.901 103.009-229.737 229.911-229.911h407.365c126.902 0.174 229.737 103.01 229.911 229.911v203.99c-0.174 126.903-103.009 229.738-229.911 229.912h-0.102z m168.541-433.902c-0.113-92.979-75.459-168.325-168.438-168.438H309.317c-92.979 0.112-168.325 75.459-168.438 168.438v203.99c0.113 92.979 75.459 168.326 168.438 168.438h407.365c92.979-0.113 168.325-75.459 168.438-168.438v-203.99z m-619.86 496.81c16.975 0 30.737 13.762 30.737 30.737v45.388c0.112 87.037 70.643 157.567 157.68 157.68h118.541c87.037-0.113 157.568-70.643 157.681-157.68v-45.388c0.014-16.975 13.786-30.726 30.762-30.712 16.956 0.014 30.698 13.756 30.712 30.712v45.388C791.199 797.018 693.189 895.027 572.219 895.202H453.678c-120.97-0.175-218.98-98.184-219.154-219.154v-45.388c0-16.975 13.761-30.737 30.737-30.737M512.897 362.226c-64.167-0.123-116.086-52.24-115.963-116.407 0.099-52.162 34.95-97.864 85.226-111.763v-85.347c0.014-16.975 13.786-30.727 30.762-30.712 16.956 0.015 30.698 13.756 30.712 30.712v84.937c61.847 17.098 98.124 81.096 81.026 142.943-13.899 50.276-59.602 85.127-111.764 85.226m0.001-170.896c-30.216-0.007-54.716 24.483-54.723 54.7-0.006 30.217 24.485 54.717 54.701 54.723h0.022c30.217-0.006 54.707-24.506 54.7-54.723-0.005-30.208-24.492-54.694-54.7-54.7"  horiz-adv-x="1024" />

    
    <glyph glyph-name="fanhui-copy" unicode="&#58934;" d="M749.87300001 895.901c-16.56399999 0-33.129-5.944-45.80900001-17.946l-475.341-450.59c-25.36000001-24.004-25.36-62.867 0-86.871l475.341-450.59c25.247-24.004 66.25700001-24.004 91.618 0 25.36 23.891 25.36 62.867 0 86.872L366.264 383.81500000000005 795.682 790.969c25.361 24.004 25.361 62.868 0 86.871C783.001 889.843 766.437 895.901 749.87300001 895.901"  horiz-adv-x="1024" />

    
    <glyph glyph-name="fanhui-copy-copy" unicode="&#59177;" d="M1023.901 146.12699998999994c0 16.56399999-5.944 33.129-17.946 45.80900001l-450.59 475.341c-24.004 25.36000001-62.867 25.36-86.871 0l-450.59-475.341c-24.004-25.247-24.004-66.25700001 0-91.618 23.891-25.36 62.867-25.36 86.872 0L511.815 529.736 918.969 100.31799999999998c24.004-25.361 62.868-25.361 86.871 0C1017.843 112.99900000000002 1023.901 129.563 1023.901 146.12699998999994"  horiz-adv-x="1024" />

    
    <glyph glyph-name="fanhui-copy-copy-copy" unicode="&#59178;" d="M295.46033332-127.90099999999995c16.56399999 0 33.129 5.944 45.80900001 17.946l475.341 450.59c25.36000001 24.004 25.36 62.867 0 86.871l-475.341 450.59c-25.247 24.004-66.25700001 24.004-91.618 0-25.36-23.891-25.36-62.867 0-86.872L679.06933333 384.185 249.65133333-22.96900000000005c-25.361-24.004-25.361-62.868 0-86.871C262.33233333-121.84299999999996 278.89633333-127.90099999999995 295.46033332-127.90099999999995"  horiz-adv-x="1024" />

    
    <glyph glyph-name="weixin" unicode="&#58880;" d="M712.348 545.104c5.127 0 10.253-0.129 15.379-0.385C700.813 690.9449999999999 549.845 802.955 367.478 802.955 166.144 802.955 3 666.467 3 498.197c0-98.68 56.133-186.468 143.023-242.216 1.154-0.77 3.332-2.051 3.332-2.051l-35.243-110.343 131.745 67.154s4.101-1.153 6.152-1.795c36.268-10.124 74.972-15.507 115.341-15.507 8.202 0 16.404 0.257 24.478 0.77-7.433 23.196-11.534 47.546-11.534 72.793 0.127 153.533 148.789 278.102 332.054 278.102m-218.122 107.65c28.322 0 51.134-22.171 51.134-49.596 0-27.298-22.812-49.597-51.134-49.597-28.323 0-51.135 22.171-51.135 49.597-0.001 27.425 22.939 49.596 51.135 49.596m-253.623-99.192c-28.322 0-51.134 22.171-51.134 49.597 0 27.425 22.94 49.596 51.134 49.596 28.323 0 51.263-22.171 51.263-49.596-0.001-27.427-22.941-49.597-51.263-49.597M407.207 265.08000000000004c0-142.254 137.896-257.595 307.96-257.595 34.09 0 66.77 4.613 97.398 13.2 1.794 0.513 5.256 1.538 5.256 1.538l111.24-56.774-29.732 93.17s1.922 1.154 2.818 1.795C975.582 107.447 1023 181.52200000000005 1023 264.951c0 142.254-137.896 257.596-307.833 257.596-170.063 0-307.96-115.341-307.96-257.467m371.782 88.685c0 23.068 19.352 41.779 43.189 41.779 23.965 0 43.316-18.71 43.316-41.779 0-23.196-19.352-41.907-43.316-41.907-23.837-0.001-43.189 18.71-43.189 41.907m-214.278 0c0 23.068 19.352 41.779 43.188 41.779 23.838 0 43.317-18.71 43.317-41.779 0-23.196-19.352-41.907-43.317-41.907-23.836-0.001-43.188 18.71-43.188 41.907"  horiz-adv-x="1024" />

    
    <glyph glyph-name="laba" unicode="&#58984;" d="M708.314 587.682c10.447-18.355 31.183-22.905 46.294-10.221l161.998 136.015c15.139 12.686 18.863 37.938 8.492 56.302l-5.93 10.403c-10.517 18.391-31.222 23.055-46.4 10.333L710.847 654.431c-15.104-12.722-19.009-37.87-8.454-56.375l5.921-10.374zM564.832 800.997L190.736 570.27c-7.033-0.779-15.233-1.232-24.896-1.232H50.06C20.469 569.039 2 555.231 2 524.013v-277.558c0-31.114 16.915-46.581 48.06-46.581h116.211c9.47-0.023 17.529-0.479 24.457-1.248v-0.046l374.104-233.689c18.283-11.352 41.923 1.796 41.923 23.316V777.681c0 21.52-23.64 34.668-41.923 23.316M916.566 55.546L754.569 191.632c-15.035 12.722-35.847 8.137-46.294-10.258l-5.959-10.342c-10.516-18.423-6.648-43.61 8.453-56.332l161.929-136.017c15.142-12.76 35.924-8.165 46.4 10.227l5.854 10.364c10.516 18.364 6.756 43.619-8.386 56.272M983.634 431.65H786.368c-22.366 0-40.364-18.104-40.364-40.441V378.6c0-22.364 17.998-40.51 40.364-40.51h197.268c22.372 0 40.363 18.146 40.363 40.51v12.541c0.113 22.405-17.962 40.509-40.365 40.509"  horiz-adv-x="1024" />

    
    <glyph glyph-name="zhengmingsai" unicode="&#58985;" d="M511.221669 895.777049C305.412489 895.777049 137.969954 728.334513 137.969954 522.524333c0-123.129186 59.46605-236.317536 159.965164-306.255306v-120.317798c0-29.399598 23.92279-53.322388 53.322387-53.322387h319.930328c29.399598 0 53.322388 23.92279 53.322388 53.322387V216.269027c100.499114 69.937769 159.965164 183.12612 159.965164 306.255306C884.474385 728.334513 717.03185 895.777049 511.221669 895.777049m164.272226-635.236663l-14.970739-9.409951v-144.515528H543.214702V313.912763l92.995748 65.095824c14.475848 10.133793 17.996081 30.082449 7.863288 44.553297-10.143791 14.491844-30.097446 18.011078-44.553298 7.862288l-88.296771-61.80654-88.30077 61.80654c-14.46585 10.133793-34.414505 6.618559-44.552298-7.862288-10.133793-14.470849-6.61356-34.419504 7.862288-44.553297l92.995748-65.099823v-207.293857H361.921183V251.130435l-14.97074 9.409951C256.158216 317.60096 201.956019 415.537632 201.956019 522.524333c0 170.530863 138.735787 309.26665 309.26665 309.26665s309.26565-138.735787 309.26565-309.26665c0-106.986701-54.202196-204.923373-144.994424-261.983947M649.858478 21.300486H372.585861c-17.668152 0-31.993033-14.32488-31.993033-31.993032s14.32488-31.993033 31.993033-31.993033H649.858478c17.668152 0 31.993033 14.32488 31.993033 31.993033s-14.32488 31.993033-31.993033 31.993032M607.200768-64.013934h-191.958197c-17.667153 0-31.993033-14.32488-31.993033-31.993033s14.32588-31.993033 31.993033-31.993033h191.958197c17.668152 0 31.993033 14.32488 31.993033 31.993033s-14.32488 31.993033-31.993033 31.993033"  horiz-adv-x="1024" />

    
    <glyph glyph-name="qipao-copy" unicode="&#59583;" d="M170.46466668 384.159c282.743 0 512-229.257 511.99999999-512l1e-8 1024c0-282.743-229.257-512-512-512"  horiz-adv-x="1024" />

    
    <glyph glyph-name="qipao-copy-copy" unicode="&#59584;" d="M896.20199998 383.841c-282.743 0-512 229.257-511.99999999 511.99999999l-1e-8-1023.99999999c0 282.743 229.257 512 512 512"  horiz-adv-x="1024" />

    
    <glyph glyph-name="qipao-copy-copy-copy" unicode="&#59585;" d="M511.841-0.20199997999998232c0 282.743 229.257 512 511.99999999 511.99999999l-1023.99999999 1e-8c282.743 0 512-229.257 512-512"  horiz-adv-x="1024" />

    


  </font>
</defs>
</svg>
